STARTFONT 2.1
FONT -WRI-Mathematica1-Medium-R-Normal--11-110-75-75-p-60-Adobe-FontSpecific
SIZE 11 75 75
FONTBOUNDINGBOX 18 12 -1 -2
STARTPROPERTIES 16
FOUNDRY "WRI"
FAMILY_NAME "Mathematica1"
WEIGHT_NAME "Medium"
SLANT "R"
SETWIDTH_NAME "Normal"
PIXEL_SIZE 11
POINT_SIZE 110
RESOLUTION_X 75
RESOLUTION_Y 75
SPACING "p"
AVERAGE_WIDTH 60
CHARSET_REGISTRY "Adobe"
CHARSET_ENCODING "FontSpecific"
FONT_DESCENT 2
FONT_ASCENT 10
DEFAULT_CHAR 32
ENDPROPERTIES
CHARS 224
STARTCHAR Space
ENCODING 32
SWIDTH 189 0
DWIDTH 2 0
BBX 0 0 0 0
BITMAP
ENDCHAR
STARTCHAR Exclamation
ENCODING 33
SWIDTH 333 0
DWIDTH 4 0
BBX 1 8 1 0
BITMAP
80
80
80
80
80
80
00
80
ENDCHAR
STARTCHAR ForAll
ENCODING 34
SWIDTH 587 0
DWIDTH 6 0
BBX 6 8 0 0
BITMAP
84
44
48
78
28
28
30
10
ENDCHAR
STARTCHAR NumberSign
ENCODING 35
SWIDTH 622 0
DWIDTH 7 0
BBX 6 7 0 0
BITMAP
28
28
fc
50
fc
50
50
ENDCHAR
STARTCHAR Exists
ENCODING 36
SWIDTH 587 0
DWIDTH 6 0
BBX 5 8 0 0
BITMAP
f8
08
08
78
08
08
08
f8
ENDCHAR
STARTCHAR Percent
ENCODING 37
SWIDTH 800 0
DWIDTH 9 0
BBX 7 8 1 0
BITMAP
64
a8
a8
d0
16
2a
4a
4c
ENDCHAR
STARTCHAR Ampersand
ENCODING 38
SWIDTH 778 0
DWIDTH 9 0
BBX 8 8 0 0
BITMAP
18
28
28
37
52
94
89
76
ENDCHAR
STARTCHAR SmallMember
ENCODING 39
SWIDTH 486 0
DWIDTH 5 0
BBX 4 6 1 0
BITMAP
e0
10
f0
10
30
e0
ENDCHAR
STARTCHAR LParen
ENCODING 40
SWIDTH 321 0
DWIDTH 4 0
BBX 3 10 1 -2
BITMAP
20
40
80
80
80
80
80
80
40
20
ENDCHAR
STARTCHAR RParen
ENCODING 41
SWIDTH 321 0
DWIDTH 4 0
BBX 3 10 0 -2
BITMAP
80
40
20
20
20
20
20
20
40
80
ENDCHAR
STARTCHAR Star
ENCODING 42
SWIDTH 471 0
DWIDTH 5 0
BBX 5 5 0 0
BITMAP
20
a8
70
a8
20
ENDCHAR
STARTCHAR Plus
ENCODING 43
SWIDTH 644 0
DWIDTH 7 0
BBX 7 6 0 -1
BITMAP
10
10
fe
10
10
10
ENDCHAR
STARTCHAR Comma
ENCODING 44
SWIDTH 250 0
DWIDTH 3 0
BBX 2 3 1 -2
BITMAP
c0
40
80
ENDCHAR
STARTCHAR Minus
ENCODING 45
SWIDTH 644 0
DWIDTH 7 0
BBX 5 1 1 2
BITMAP
f8
ENDCHAR
STARTCHAR Period
ENCODING 46
SWIDTH 250 0
DWIDTH 3 0
BBX 1 1 1 0
BITMAP
80
ENDCHAR
STARTCHAR Slash
ENCODING 47
SWIDTH 317 0
DWIDTH 3 0
BBX 3 10 0 -2
BITMAP
20
20
40
40
40
40
80
80
80
80
ENDCHAR
STARTCHAR Zero
ENCODING 48
SWIDTH 500 0
DWIDTH 6 0
BBX 5 8 0 0
BITMAP
70
90
88
88
88
88
d0
70
ENDCHAR
STARTCHAR One
ENCODING 49
SWIDTH 500 0
DWIDTH 6 0
BBX 3 8 1 0
BITMAP
c0
40
40
40
40
40
40
e0
ENDCHAR
STARTCHAR Two
ENCODING 50
SWIDTH 500 0
DWIDTH 6 0
BBX 5 8 0 0
BITMAP
70
88
08
08
10
20
48
f0
ENDCHAR
STARTCHAR Three
ENCODING 51
SWIDTH 500 0
DWIDTH 6 0
BBX 4 8 0 0
BITMAP
70
90
30
60
10
10
10
e0
ENDCHAR
STARTCHAR Four
ENCODING 52
SWIDTH 500 0
DWIDTH 6 0
BBX 5 8 0 0
BITMAP
10
30
70
d0
f8
10
10
10
ENDCHAR
STARTCHAR Five
ENCODING 53
SWIDTH 500 0
DWIDTH 6 0
BBX 4 8 1 0
BITMAP
70
40
e0
30
10
10
10
e0
ENDCHAR
STARTCHAR Six
ENCODING 54
SWIDTH 500 0
DWIDTH 6 0
BBX 5 8 0 0
BITMAP
18
60
80
f0
88
88
c8
70
ENDCHAR
STARTCHAR Seven
ENCODING 55
SWIDTH 500 0
DWIDTH 6 0
BBX 5 8 0 0
BITMAP
78
88
10
10
10
10
20
20
ENDCHAR
STARTCHAR Eight
ENCODING 56
SWIDTH 500 0
DWIDTH 6 0
BBX 4 8 1 0
BITMAP
60
90
90
60
b0
90
90
60
ENDCHAR
STARTCHAR Nine
ENCODING 57
SWIDTH 500 0
DWIDTH 6 0
BBX 5 8 0 0
BITMAP
70
88
88
88
78
10
30
c0
ENDCHAR
STARTCHAR Colon
ENCODING 58
SWIDTH 278 0
DWIDTH 3 0
BBX 1 6 1 0
BITMAP
80
00
00
00
00
80
ENDCHAR
STARTCHAR SemiColon
ENCODING 59
SWIDTH 278 0
DWIDTH 3 0
BBX 2 8 1 -2
BITMAP
80
00
00
00
00
c0
40
80
ENDCHAR
STARTCHAR Less
ENCODING 60
SWIDTH 644 0
DWIDTH 7 0
BBX 5 5 1 0
BITMAP
08
30
c0
60
18
ENDCHAR
STARTCHAR Equal
ENCODING 61
SWIDTH 645 0
DWIDTH 7 0
BBX 5 3 1 1
BITMAP
f8
00
f8
ENDCHAR
STARTCHAR Greater
ENCODING 62
SWIDTH 644 0
DWIDTH 7 0
BBX 5 5 1 0
BITMAP
80
60
18
30
c0
ENDCHAR
STARTCHAR Question
ENCODING 63
SWIDTH 444 0
DWIDTH 5 0
BBX 4 8 0 0
BITMAP
60
90
90
10
20
20
00
20
ENDCHAR
STARTCHAR TildeFullEqual
ENCODING 64
SWIDTH 644 0
DWIDTH 7 0
BBX 5 6 1 0
BITMAP
c8
b8
00
f8
00
f8
ENDCHAR
STARTCHAR CapAlpha
ENCODING 65
SWIDTH 724 0
DWIDTH 8 0
BBX 7 8 0 0
BITMAP
10
10
38
28
28
7c
44
ee
ENDCHAR
STARTCHAR CapBeta
ENCODING 66
SWIDTH 639 0
DWIDTH 7 0
BBX 6 8 0 0
BITMAP
f8
44
44
78
44
44
44
f8
ENDCHAR
STARTCHAR CapChi
ENCODING 67
SWIDTH 725 0
DWIDTH 8 0
BBX 8 8 0 0
BITMAP
e7
42
24
18
18
24
42
e7
ENDCHAR
STARTCHAR CapDelta
ENCODING 68
SWIDTH 636 0
DWIDTH 7 0
BBX 7 8 0 0
BITMAP
10
28
28
28
44
44
44
fe
ENDCHAR
STARTCHAR CapEpsilon
ENCODING 69
SWIDTH 628 0
DWIDTH 7 0
BBX 6 8 0 0
BITMAP
fc
44
48
78
48
40
44
fc
ENDCHAR
STARTCHAR CapPhi
ENCODING 70
SWIDTH 637 0
DWIDTH 7 0
BBX 7 8 0 0
BITMAP
38
10
7c
92
92
7c
10
38
ENDCHAR
STARTCHAR CapGamma
ENCODING 71
SWIDTH 592 0
DWIDTH 7 0
BBX 6 8 0 0
BITMAP
fc
44
40
40
40
40
40
e0
ENDCHAR
STARTCHAR CapEta
ENCODING 72
SWIDTH 730 0
DWIDTH 8 0
BBX 8 8 0 0
BITMAP
e7
42
42
7e
42
42
42
e7
ENDCHAR
STARTCHAR CapIota
ENCODING 73
SWIDTH 351 0
DWIDTH 4 0
BBX 3 8 0 0
BITMAP
e0
40
40
40
40
40
40
e0
ENDCHAR
STARTCHAR CurlyTheta
ENCODING 74
SWIDTH 494 0
DWIDTH 5 0
BBX 6 8 0 0
BITMAP
10
28
28
18
4c
90
90
60
ENDCHAR
STARTCHAR CapKappa
ENCODING 75
SWIDTH 734 0
DWIDTH 8 0
BBX 8 8 0 0
BITMAP
ee
44
48
50
68
44
42
ef
ENDCHAR
STARTCHAR CapLambda
ENCODING 76
SWIDTH 716 0
DWIDTH 8 0
BBX 8 8 0 0
BITMAP
08
18
14
14
34
26
22
e7
ENDCHAR
STARTCHAR CapMu
ENCODING 77
SWIDTH 883 0
DWIDTH 10 0
BBX 9 8 0 0
BITMAP
e380
6300
6300
5500
5500
5500
4900
eb80
ENDCHAR
STARTCHAR CapNu
ENCODING 78
SWIDTH 727 0
DWIDTH 8 0
BBX 7 8 0 0
BITMAP
ce
64
64
54
4c
4c
44
e4
ENDCHAR
STARTCHAR CapOmicron
ENCODING 79
SWIDTH 687 0
DWIDTH 8 0
BBX 7 8 0 0
BITMAP
38
44
82
82
82
82
44
38
ENDCHAR
STARTCHAR CapPi
ENCODING 80
SWIDTH 727 0
DWIDTH 8 0
BBX 8 8 0 0
BITMAP
ff
42
42
42
42
42
42
e7
ENDCHAR
STARTCHAR CapTheta
ENCODING 81
SWIDTH 687 0
DWIDTH 8 0
BBX 7 8 0 0
BITMAP
38
44
aa
ba
aa
82
44
38
ENDCHAR
STARTCHAR CapRho
ENCODING 82
SWIDTH 564 0
DWIDTH 6 0
BBX 6 8 0 0
BITMAP
f8
44
44
44
78
40
40
e0
ENDCHAR
STARTCHAR CapSigma
ENCODING 83
SWIDTH 572 0
DWIDTH 6 0
BBX 6 8 0 0
BITMAP
fc
44
20
10
10
20
44
fc
ENDCHAR
STARTCHAR CapTau
ENCODING 84
SWIDTH 604 0
DWIDTH 7 0
BBX 7 8 0 0
BITMAP
fe
92
10
10
10
10
10
38
ENDCHAR
STARTCHAR CapUpsilon
ENCODING 85
SWIDTH 684 0
DWIDTH 8 0
BBX 7 8 0 0
BITMAP
c6
28
28
10
10
10
10
38
ENDCHAR
STARTCHAR FinalSigma
ENCODING 86
SWIDTH 473 0
DWIDTH 5 0
BBX 5 8 0 -2
BITMAP
78
88
80
80
40
30
10
60
ENDCHAR
STARTCHAR CapOmega
ENCODING 87
SWIDTH 748 0
DWIDTH 8 0
BBX 8 8 0 0
BITMAP
18
24
42
42
42
42
a5
e7
ENDCHAR
STARTCHAR CapXi
ENCODING 88
SWIDTH 615 0
DWIDTH 7 0
BBX 6 8 0 0
BITMAP
fc
84
28
38
28
00
84
fc
ENDCHAR
STARTCHAR CapPsi
ENCODING 89
SWIDTH 616 0
DWIDTH 7 0
BBX 7 8 0 0
BITMAP
38
92
54
54
38
10
10
38
ENDCHAR
STARTCHAR CapZeta
ENCODING 90
SWIDTH 635 0
DWIDTH 7 0
BBX 6 8 0 0
BITMAP
fc
84
08
10
20
40
84
fc
ENDCHAR
STARTCHAR LBracket
ENCODING 91
SWIDTH 333 0
DWIDTH 4 0
BBX 2 10 1 -2
BITMAP
c0
80
80
80
80
80
80
80
80
c0
ENDCHAR
STARTCHAR Therefore
ENCODING 92
SWIDTH 629 0
DWIDTH 7 0
BBX 5 6 1 0
BITMAP
20
00
00
00
00
88
ENDCHAR
STARTCHAR RBracket
ENCODING 93
SWIDTH 333 0
DWIDTH 4 0
BBX 2 10 1 -2
BITMAP
c0
40
40
40
40
40
40
40
40
c0
ENDCHAR
STARTCHAR Perpendicular
ENCODING 94
SWIDTH 712 0
DWIDTH 8 0
BBX 7 6 1 0
BITMAP
10
10
10
10
10
fe
ENDCHAR
STARTCHAR Underbar
ENCODING 95
SWIDTH 580 0
DWIDTH 6 0
BBX 5 1 1 -1
BITMAP
f8
ENDCHAR
STARTCHAR Hat
ENCODING 96
SWIDTH 312 0
DWIDTH 3 0
BBX 3 2 0 0
BITMAP
40
a0
ENDCHAR
STARTCHAR Alpha
ENCODING 97
SWIDTH 593 0
DWIDTH 7 0
BBX 7 6 0 0
BITMAP
32
54
98
90
94
78
ENDCHAR
STARTCHAR Beta
ENCODING 98
SWIDTH 508 0
DWIDTH 6 0
BBX 7 10 -1 -2
BITMAP
0c
12
12
2c
22
22
62
5c
40
80
ENDCHAR
STARTCHAR Chi
ENCODING 99
SWIDTH 555 0
DWIDTH 6 0
BBX 7 8 -1 -2
BITMAP
32
12
14
08
18
28
48
8c
ENDCHAR
STARTCHAR Delta
ENCODING 100
SWIDTH 465 0
DWIDTH 5 0
BBX 5 8 0 0
BITMAP
38
20
30
50
90
90
90
60
ENDCHAR
STARTCHAR Epsilon
ENCODING 101
SWIDTH 390 0
DWIDTH 4 0
BBX 4 6 0 0
BITMAP
70
80
f0
80
80
70
ENDCHAR
STARTCHAR Phi
ENCODING 102
SWIDTH 550 0
DWIDTH 6 0
BBX 6 9 0 -2
BITMAP
08
38
54
94
94
a8
70
20
20
ENDCHAR
STARTCHAR Gamma
ENCODING 103
SWIDTH 518 0
DWIDTH 6 0
BBX 5 8 1 -2
BITMAP
48
a8
30
30
20
20
40
40
ENDCHAR
STARTCHAR Eta
ENCODING 104
SWIDTH 495 0
DWIDTH 5 0
BBX 5 8 0 -2
BITMAP
d8
68
48
48
90
90
10
10
ENDCHAR
STARTCHAR Iota
ENCODING 105
SWIDTH 284 0
DWIDTH 3 0
BBX 3 6 0 0
BITMAP
40
40
40
40
a0
c0
ENDCHAR
STARTCHAR CurlyPhi
ENCODING 106
SWIDTH 569 0
DWIDTH 6 0
BBX 6 8 0 -2
BITMAP
4c
94
94
94
a8
70
20
60
ENDCHAR
STARTCHAR Kappa
ENCODING 107
SWIDTH 434 0
DWIDTH 5 0
BBX 5 6 0 0
BITMAP
48
50
e0
a0
90
90
ENDCHAR
STARTCHAR Lambda
ENCODING 108
SWIDTH 514 0
DWIDTH 6 0
BBX 6 8 0 0
BITMAP
60
10
10
10
30
50
90
8c
ENDCHAR
STARTCHAR Mu
ENCODING 109
SWIDTH 535 0
DWIDTH 6 0
BBX 5 8 0 -2
BITMAP
48
48
50
90
90
f8
80
80
ENDCHAR
STARTCHAR Nu
ENCODING 110
SWIDTH 460 0
DWIDTH 5 0
BBX 5 6 0 0
BITMAP
88
48
50
50
60
40
ENDCHAR
STARTCHAR Omicron
ENCODING 111
SWIDTH 478 0
DWIDTH 5 0
BBX 5 6 0 0
BITMAP
30
48
88
88
90
60
ENDCHAR
STARTCHAR Pi
ENCODING 112
SWIDTH 524 0
DWIDTH 6 0
BBX 6 6 0 0
BITMAP
7c
a8
28
50
50
98
ENDCHAR
STARTCHAR Theta
ENCODING 113
SWIDTH 439 0
DWIDTH 5 0
BBX 5 8 0 0
BITMAP
30
48
48
f8
88
90
90
60
ENDCHAR
STARTCHAR Rho
ENCODING 114
SWIDTH 508 0
DWIDTH 6 0
BBX 6 8 -1 -2
BITMAP
18
24
44
44
48
70
40
c0
ENDCHAR
STARTCHAR Sigma
ENCODING 115
SWIDTH 679 0
DWIDTH 7 0
BBX 7 6 1 0
BITMAP
3e
48
88
88
90
60
ENDCHAR
STARTCHAR Tau
ENCODING 116
SWIDTH 474 0
DWIDTH 5 0
BBX 5 6 0 0
BITMAP
78
90
30
20
20
20
ENDCHAR
STARTCHAR Upsilon
ENCODING 117
SWIDTH 525 0
DWIDTH 6 0
BBX 5 6 1 0
BITMAP
c8
48
48
90
90
60
ENDCHAR
STARTCHAR CurlyPi
ENCODING 118
SWIDTH 822 0
DWIDTH 9 0
BBX 9 6 0 0
BITMAP
7f80
a100
4900
4900
4b00
7e00
ENDCHAR
STARTCHAR Omega
ENCODING 119
SWIDTH 691 0
DWIDTH 8 0
BBX 7 6 0 0
BITMAP
42
82
92
92
94
fc
ENDCHAR
STARTCHAR Xi
ENCODING 120
SWIDTH 437 0
DWIDTH 5 0
BBX 5 10 0 -2
BITMAP
28
38
40
40
30
c0
80
e0
20
40
ENDCHAR
STARTCHAR Psi
ENCODING 121
SWIDTH 617 0
DWIDTH 7 0
BBX 6 9 0 -2
BITMAP
10
94
d8
a8
a8
a8
70
40
40
ENDCHAR
STARTCHAR Zeta
ENCODING 122
SWIDTH 421 0
DWIDTH 5 0
BBX 5 9 0 -2
BITMAP
28
30
20
40
80
80
e0
20
40
ENDCHAR
STARTCHAR LBrace
ENCODING 123
SWIDTH 328 0
DWIDTH 4 0
BBX 3 10 0 -2
BITMAP
20
40
40
40
40
80
40
40
40
20
ENDCHAR
STARTCHAR VertBar
ENCODING 124
SWIDTH 200 0
DWIDTH 2 0
BBX 1 9 0 -1
BITMAP
80
80
80
80
80
80
80
80
80
ENDCHAR
STARTCHAR RBrace
ENCODING 125
SWIDTH 328 0
DWIDTH 4 0
BBX 3 10 1 -2
BITMAP
80
40
40
40
40
20
40
40
40
80
ENDCHAR
STARTCHAR Tilde
ENCODING 126
SWIDTH 644 0
DWIDTH 7 0
BBX 6 2 1 2
BITMAP
64
9c
ENDCHAR
STARTCHAR DEL
ENCODING 127
SWIDTH 189 0
DWIDTH 2 0
BBX 0 0 0 0
BITMAP
ENDCHAR
STARTCHAR FractionBarExt
ENCODING 128
SWIDTH 165 0
DWIDTH 2 0
BBX 2 1 0 2
BITMAP
c0
ENDCHAR
STARTCHAR EscapeChar
ENCODING 129
SWIDTH 297 0
DWIDTH 3 0
BBX 2 7 1 -2
BITMAP
c0
00
00
c0
00
00
c0
ENDCHAR
STARTCHAR SelectPlaceholder
ENCODING 130
SWIDTH 595 0
DWIDTH 7 0
BBX 5 5 1 0
BITMAP
f8
f8
f8
f8
f8
ENDCHAR
STARTCHAR Placeholder
ENCODING 131
SWIDTH 589 0
DWIDTH 6 0
BBX 5 5 1 0
BITMAP
f8
88
88
88
f8
ENDCHAR
STARTCHAR Continuation
ENCODING 132
SWIDTH 533 0
DWIDTH 6 0
BBX 5 7 1 0
BITMAP
80
00
00
20
00
00
08
ENDCHAR
STARTCHAR Skeleton
ENCODING 133
SWIDTH 333 0
DWIDTH 4 0
BBX 3 2 0 1
BITMAP
e0
e0
ENDCHAR
STARTCHAR LSkeleton
ENCODING 134
SWIDTH 1000 0
DWIDTH 11 0
BBX 10 5 1 0
BITMAP
0440
3b80
cc00
7700
0cc0
ENDCHAR
STARTCHAR RSkeleton
ENCODING 135
SWIDTH 1000 0
DWIDTH 11 0
BBX 10 5 0 0
BITMAP
8800
7700
0cc0
3b80
cc00
ENDCHAR
STARTCHAR Spacer
ENCODING 136
SWIDTH 250 0
DWIDTH 3 0
BBX 3 2 0 -2
BITMAP
a0
e0
ENDCHAR
STARTCHAR Cross
ENCODING 137
SWIDTH 522 0
DWIDTH 6 0
BBX 4 4 0 1
BITMAP
80
50
20
50
ENDCHAR
STARTCHAR DblEqual
ENCODING 138
SWIDTH 806 0
DWIDTH 9 0
BBX 8 3 0 1
BITMAP
ff
00
ff
ENDCHAR
STARTCHAR Grave
ENCODING 139
SWIDTH 224 0
DWIDTH 2 0
BBX 2 2 0 1
BITMAP
80
40
ENDCHAR
STARTCHAR Acute
ENCODING 140
SWIDTH 224 0
DWIDTH 2 0
BBX 2 2 0 1
BITMAP
40
80
ENDCHAR
STARTCHAR DoubleAcute
ENCODING 141
SWIDTH 364 0
DWIDTH 4 0
BBX 4 2 0 1
BITMAP
50
a0
ENDCHAR
STARTCHAR OverTilde
ENCODING 142
SWIDTH 331 0
DWIDTH 4 0
BBX 4 2 0 1
BITMAP
d0
b0
ENDCHAR
STARTCHAR OverBar
ENCODING 143
SWIDTH 312 0
DWIDTH 3 0
BBX 3 1 0 0
BITMAP
e0
ENDCHAR
STARTCHAR DblUpDownArrow
ENCODING 144
SWIDTH 629 0
DWIDTH 7 0
BBX 5 11 1 -1
BITMAP
20
50
d8
50
50
50
50
50
d8
50
20
ENDCHAR
STARTCHAR DblUpExtens1
ENCODING 145
SWIDTH 629 0
DWIDTH 7 0
BBX 3 5 2 -1
BITMAP
a0
a0
a0
a0
a0
ENDCHAR
STARTCHAR DblLongLArrow
ENCODING 146
SWIDTH 1377 0
DWIDTH 15 0
BBX 13 5 1 0
BITMAP
2000
7ff8
8000
7ff8
2000
ENDCHAR
STARTCHAR DblExtens
ENCODING 147
SWIDTH 448 0
DWIDTH 5 0
BBX 3 3 1 1
BITMAP
e0
00
e0
ENDCHAR
STARTCHAR DblLongRArrow
ENCODING 148
SWIDTH 1377 0
DWIDTH 15 0
BBX 13 5 1 0
BITMAP
0020
fff0
0008
fff0
0020
ENDCHAR
STARTCHAR DblLRArrow2
ENCODING 149
SWIDTH 1110 0
DWIDTH 12 0
BBX 11 5 1 0
BITMAP
2080
7fc0
8020
7fc0
2080
ENDCHAR
STARTCHAR DblLongLRArrow
ENCODING 150
SWIDTH 1606 0
DWIDTH 18 0
BBX 16 5 1 0
BITMAP
2004
7ffe
8001
7ffe
2004
ENDCHAR
STARTCHAR UpDownArrow
ENCODING 151
SWIDTH 533 0
DWIDTH 6 0
BBX 5 9 1 0
BITMAP
20
70
a8
20
20
20
a8
70
20
ENDCHAR
STARTCHAR LongLArrow
ENCODING 152
SWIDTH 1374 0
DWIDTH 15 0
BBX 13 5 1 0
BITMAP
2000
4000
fff8
4000
2000
ENDCHAR
STARTCHAR LongRArrow
ENCODING 153
SWIDTH 1382 0
DWIDTH 15 0
BBX 13 5 1 0
BITMAP
0020
0010
fff8
0010
0020
ENDCHAR
STARTCHAR LongLRArrow
ENCODING 154
SWIDTH 1605 0
DWIDTH 18 0
BBX 16 5 1 0
BITMAP
2004
4002
ffff
4002
2004
ENDCHAR
STARTCHAR ColonEqual
ENCODING 155
SWIDTH 837 0
DWIDTH 9 0
BBX 8 3 1 1
BITMAP
bf
00
bf
ENDCHAR
STARTCHAR Diamond2
ENCODING 156
SWIDTH 512 0
DWIDTH 6 0
BBX 5 5 0 1
BITMAP
20
50
88
50
20
ENDCHAR
STARTCHAR NotSquareSprsetEqual
ENCODING 157
SWIDTH 657 0
DWIDTH 7 0
BBX 6 7 1 -1
BITMAP
f8
0c
04
0c
f8
00
fc
ENDCHAR
STARTCHAR AtSign
ENCODING 158
SWIDTH 685 0
DWIDTH 8 0
BBX 7 7 1 0
BITMAP
3c
46
9a
aa
bc
40
3c
ENDCHAR
STARTCHAR Solidmedsqr
ENCODING 159
SWIDTH 519 0
DWIDTH 6 0
BBX 4 4 1 1
BITMAP
f0
f0
f0
f0
ENDCHAR
STARTCHAR OverDot
ENCODING 160
SWIDTH 100 0
DWIDTH 1 0
BBX 1 1 0 1
BITMAP
80
ENDCHAR
STARTCHAR CurlyCapUpsilon
ENCODING 161
SWIDTH 648 0
DWIDTH 7 0
BBX 7 8 0 0
BITMAP
c6
2a
10
10
10
10
10
38
ENDCHAR
STARTCHAR Prime
ENCODING 162
SWIDTH 347 0
DWIDTH 4 0
BBX 3 5 1 1
BITMAP
20
60
40
80
80
ENDCHAR
STARTCHAR LessEqual
ENCODING 163
SWIDTH 644 0
DWIDTH 7 0
BBX 5 7 1 -1
BITMAP
08
30
c0
60
18
00
f8
ENDCHAR
STARTCHAR Fraction
ENCODING 164
SWIDTH 520 0
DWIDTH 6 0
BBX 6 8 0 0
BITMAP
04
08
10
10
20
40
40
80
ENDCHAR
STARTCHAR Infinity
ENCODING 165
SWIDTH 853 0
DWIDTH 9 0
BBX 8 4 1 1
BITMAP
67
99
89
f6
ENDCHAR
STARTCHAR RuleDelayed
ENCODING 166
SWIDTH 802 0
DWIDTH 9 0
BBX 8 5 1 0
BITMAP
82
01
3f
01
82
ENDCHAR
STARTCHAR ClubSuit
ENCODING 167
SWIDTH 578 0
DWIDTH 6 0
BBX 7 6 0 0
BITMAP
38
38
38
fe
fe
fe
ENDCHAR
STARTCHAR DiamondSuit
ENCODING 168
SWIDTH 531 0
DWIDTH 6 0
BBX 5 7 0 0
BITMAP
20
50
50
88
50
50
20
ENDCHAR
STARTCHAR HeartSuit
ENCODING 169
SWIDTH 605 0
DWIDTH 7 0
BBX 6 6 1 0
BITMAP
fc
b4
84
48
50
20
ENDCHAR
STARTCHAR SpadeSuit
ENCODING 170
SWIDTH 542 0
DWIDTH 6 0
BBX 5 6 1 0
BITMAP
20
70
f8
f8
f8
20
ENDCHAR
STARTCHAR LRArrow
ENCODING 171
SWIDTH 973 0
DWIDTH 11 0
BBX 9 5 1 0
BITMAP
2200
4100
ff80
4100
2200
ENDCHAR
STARTCHAR LArrow
ENCODING 172
SWIDTH 822 0
DWIDTH 9 0
BBX 7 5 1 0
BITMAP
20
40
fe
40
20
ENDCHAR
STARTCHAR UpArrow
ENCODING 173
SWIDTH 533 0
DWIDTH 6 0
BBX 5 8 1 0
BITMAP
20
70
a8
20
20
20
20
20
ENDCHAR
STARTCHAR RArrow
ENCODING 174
SWIDTH 822 0
DWIDTH 9 0
BBX 7 5 1 0
BITMAP
08
04
fe
04
08
ENDCHAR
STARTCHAR DownArrow
ENCODING 175
SWIDTH 533 0
DWIDTH 6 0
BBX 5 8 1 0
BITMAP
20
20
20
20
20
a8
70
20
ENDCHAR
STARTCHAR Degree
ENCODING 176
SWIDTH 364 0
DWIDTH 4 0
BBX 3 3 0 5
BITMAP
40
a0
40
ENDCHAR
STARTCHAR PlusMinus
ENCODING 177
SWIDTH 644 0
DWIDTH 7 0
BBX 7 6 0 0
BITMAP
10
10
fe
10
10
fe
ENDCHAR
STARTCHAR DoublePrime
ENCODING 178
SWIDTH 589 0
DWIDTH 6 0
BBX 5 5 1 1
BITMAP
28
78
50
a0
a0
ENDCHAR
STARTCHAR GreaterEqual
ENCODING 179
SWIDTH 644 0
DWIDTH 7 0
BBX 5 7 1 -1
BITMAP
80
60
18
30
c0
00
f8
ENDCHAR
STARTCHAR Multiply
ENCODING 180
SWIDTH 642 0
DWIDTH 7 0
BBX 5 5 1 0
BITMAP
88
50
20
50
88
ENDCHAR
STARTCHAR Proportional
ENCODING 181
SWIDTH 670 0
DWIDTH 7 0
BBX 6 4 1 1
BITMAP
6c
b0
90
ec
ENDCHAR
STARTCHAR PartialDiff
ENCODING 182
SWIDTH 512 0
DWIDTH 6 0
BBX 5 8 0 0
BITMAP
10
28
08
38
48
88
90
e0
ENDCHAR
STARTCHAR Bullet
ENCODING 183
SWIDTH 314 0
DWIDTH 3 0
BBX 3 3 0 2
BITMAP
e0
e0
e0
ENDCHAR
STARTCHAR Divide
ENCODING 184
SWIDTH 644 0
DWIDTH 7 0
BBX 5 6 1 -1
BITMAP
20
00
f8
00
00
20
ENDCHAR
STARTCHAR NotEqual
ENCODING 185
SWIDTH 644 0
DWIDTH 7 0
BBX 5 7 1 -1
BITMAP
10
10
f8
20
f8
40
40
ENDCHAR
STARTCHAR Equivalence
ENCODING 186
SWIDTH 644 0
DWIDTH 7 0
BBX 5 5 1 0
BITMAP
f8
00
f8
00
f8
ENDCHAR
STARTCHAR Approxequal
ENCODING 187
SWIDTH 644 0
DWIDTH 7 0
BBX 6 4 1 0
BITMAP
64
9c
64
9c
ENDCHAR
STARTCHAR Ellipsis
ENCODING 188
SWIDTH 1000 0
DWIDTH 11 0
BBX 9 1 1 0
BITMAP
8880
ENDCHAR
STARTCHAR ArrowVertEx
ENCODING 189
SWIDTH 533 0
DWIDTH 6 0
BBX 1 4 3 0
BITMAP
80
80
80
80
ENDCHAR
STARTCHAR ArrowHorizEx
ENCODING 190
SWIDTH 324 0
DWIDTH 4 0
BBX 4 1 0 2
BITMAP
f0
ENDCHAR
STARTCHAR CarriageReturn
ENCODING 191
SWIDTH 628 0
DWIDTH 7 0
BBX 6 7 0 0
BITMAP
04
04
24
44
fc
40
20
ENDCHAR
STARTCHAR Aleph
ENCODING 192
SWIDTH 639 0
DWIDTH 7 0
BBX 6 8 0 0
BITMAP
88
8c
c8
70
b8
8c
c4
44
ENDCHAR
STARTCHAR IFraktur
ENCODING 193
SWIDTH 318 0
DWIDTH 4 0
BBX 3 8 0 0
BITMAP
e0
40
40
40
40
40
40
e0
ENDCHAR
STARTCHAR RFraktur
ENCODING 194
SWIDTH 690 0
DWIDTH 8 0
BBX 6 8 1 0
BITMAP
70
c8
48
50
70
48
48
ec
ENDCHAR
STARTCHAR Weierstrass
ENCODING 195
SWIDTH 624 0
DWIDTH 7 0
BBX 6 8 1 -2
BITMAP
08
54
a4
c4
68
b0
a0
e0
ENDCHAR
STARTCHAR CircleMultiply
ENCODING 196
SWIDTH 797 0
DWIDTH 9 0
BBX 7 7 1 -1
BITMAP
38
44
aa
92
aa
44
38
ENDCHAR
STARTCHAR CirclePlus
ENCODING 197
SWIDTH 797 0
DWIDTH 9 0
BBX 7 7 1 -1
BITMAP
38
54
92
fe
92
54
38
ENDCHAR
STARTCHAR EmptySet
ENCODING 198
SWIDTH 722 0
DWIDTH 8 0
BBX 7 10 0 -1
BITMAP
08
38
4c
92
92
92
92
64
38
20
ENDCHAR
STARTCHAR Union
ENCODING 199
SWIDTH 715 0
DWIDTH 8 0
BBX 6 8 1 0
BITMAP
84
84
84
84
84
84
cc
78
ENDCHAR
STARTCHAR Intersection
ENCODING 200
SWIDTH 715 0
DWIDTH 8 0
BBX 6 8 1 0
BITMAP
78
cc
84
84
84
84
84
84
ENDCHAR
STARTCHAR ProperSuperset
ENCODING 201
SWIDTH 657 0
DWIDTH 7 0
BBX 6 5 1 0
BITMAP
f8
0c
04
0c
f8
ENDCHAR
STARTCHAR NbSpace
ENCODING 202
SWIDTH 189 0
DWIDTH 2 0
BBX 0 0 0 0
BITMAP
ENDCHAR
STARTCHAR NotSubset
ENCODING 203
SWIDTH 657 0
DWIDTH 7 0
BBX 6 7 1 -1
BITMAP
10
7c
90
a0
a0
7c
20
ENDCHAR
STARTCHAR ProperSubset
ENCODING 204
SWIDTH 657 0
DWIDTH 7 0
BBX 6 5 0 0
BITMAP
7c
c0
80
c0
7c
ENDCHAR
STARTCHAR ReflexSubset
ENCODING 205
SWIDTH 657 0
DWIDTH 7 0
BBX 6 7 1 -1
BITMAP
7c
c0
80
c0
7c
00
fc
ENDCHAR
STARTCHAR Element
ENCODING 206
SWIDTH 657 0
DWIDTH 7 0
BBX 6 5 1 0
BITMAP
7c
80
fc
80
7c
ENDCHAR
STARTCHAR NotElement
ENCODING 207
SWIDTH 657 0
DWIDTH 7 0
BBX 6 8 1 -2
BITMAP
08
7c
90
fc
90
7c
20
20
ENDCHAR
STARTCHAR Angle
ENCODING 208
SWIDTH 486 0
DWIDTH 5 0
BBX 4 6 1 0
BITMAP
20
40
40
40
80
f0
ENDCHAR
STARTCHAR Gradient
ENCODING 209
SWIDTH 664 0
DWIDTH 7 0
BBX 7 7 0 0
BITMAP
fe
44
44
6c
28
28
10
ENDCHAR
STARTCHAR RegTM
ENCODING 210
SWIDTH 757 0
DWIDTH 8 0
BBX 7 8 0 0
BITMAP
38
44
ba
aa
b2
aa
44
38
ENDCHAR
STARTCHAR Copyright
ENCODING 211
SWIDTH 757 0
DWIDTH 8 0
BBX 7 8 0 0
BITMAP
38
44
9a
aa
a2
9a
44
38
ENDCHAR
STARTCHAR TM
ENCODING 212
SWIDTH 980 0
DWIDTH 11 0
BBX 9 4 1 4
BITMAP
e480
4780
4780
4580
ENDCHAR
STARTCHAR Product
ENCODING 213
SWIDTH 797 0
DWIDTH 9 0
BBX 7 8 1 0
BITMAP
fe
44
44
44
44
44
44
ee
ENDCHAR
STARTCHAR Radical
ENCODING 214
SWIDTH 781 0
DWIDTH 9 0
BBX 7 11 1 -2
BITMAP
02
02
04
04
44
a8
28
28
10
10
10
ENDCHAR
STARTCHAR DotMath
ENCODING 215
SWIDTH 239 0
DWIDTH 3 0
BBX 1 1 1 2
BITMAP
80
ENDCHAR
STARTCHAR LogicalNot
ENCODING 216
SWIDTH 640 0
DWIDTH 7 0
BBX 6 3 1 1
BITMAP
fc
04
04
ENDCHAR
STARTCHAR Wedge
ENCODING 217
SWIDTH 611 0
DWIDTH 7 0
BBX 5 7 1 0
BITMAP
20
60
50
50
90
88
88
ENDCHAR
STARTCHAR Vee
ENCODING 218
SWIDTH 611 0
DWIDTH 7 0
BBX 5 7 1 0
BITMAP
88
88
90
50
50
60
20
ENDCHAR
STARTCHAR DblLRArrow
ENCODING 219
SWIDTH 1110 0
DWIDTH 12 0
BBX 11 5 1 0
BITMAP
2080
7fc0
8020
7fc0
2080
ENDCHAR
STARTCHAR DblLArrow
ENCODING 220
SWIDTH 822 0
DWIDTH 9 0
BBX 7 5 1 0
BITMAP
20
7e
80
7e
20
ENDCHAR
STARTCHAR DblUpArrow
ENCODING 221
SWIDTH 629 0
DWIDTH 7 0
BBX 5 8 1 0
BITMAP
20
50
d8
50
50
50
50
50
ENDCHAR
STARTCHAR DblRArrow
ENCODING 222
SWIDTH 822 0
DWIDTH 9 0
BBX 7 5 1 0
BITMAP
08
fc
02
fc
08
ENDCHAR
STARTCHAR DblDownArrow
ENCODING 223
SWIDTH 629 0
DWIDTH 7 0
BBX 5 8 1 0
BITMAP
50
50
50
50
50
d8
50
20
ENDCHAR
STARTCHAR Lozenge
ENCODING 224
SWIDTH 453 0
DWIDTH 5 0
BBX 5 7 0 0
BITMAP
20
50
50
88
50
50
20
ENDCHAR
STARTCHAR LAngle
ENCODING 225
SWIDTH 363 0
DWIDTH 4 0
BBX 3 10 1 -2
BITMAP
20
40
40
80
80
80
80
40
40
20
ENDCHAR
STARTCHAR Diffd
ENCODING 226
SWIDTH 570 0
DWIDTH 7 0
BBX 8 8 0 0
BITMAP
0f
05
39
4a
8a
94
96
7c
ENDCHAR
STARTCHAR Expe
ENCODING 227
SWIDTH 520 0
DWIDTH 6 0
BBX 5 6 1 0
BITMAP
38
68
b0
a0
a0
70
ENDCHAR
STARTCHAR Imagi
ENCODING 228
SWIDTH 328 0
DWIDTH 5 0
BBX 4 8 1 0
BITMAP
20
00
f0
50
90
a0
b0
e0
ENDCHAR
STARTCHAR Sum
ENCODING 229
SWIDTH 684 0
DWIDTH 8 0
BBX 6 8 0 0
BITMAP
fc
44
20
10
20
44
44
fc
ENDCHAR
STARTCHAR LParenTop
ENCODING 230
SWIDTH 400 0
DWIDTH 4 0
BBX 4 10 1 -1
BITMAP
10
20
40
40
80
80
80
80
80
80
ENDCHAR
STARTCHAR LParenEx
ENCODING 231
SWIDTH 400 0
DWIDTH 4 0
BBX 1 5 1 -1
BITMAP
80
80
80
80
80
ENDCHAR
STARTCHAR LParenBot
ENCODING 232
SWIDTH 400 0
DWIDTH 4 0
BBX 4 10 1 0
BITMAP
80
80
80
80
80
80
40
40
20
10
ENDCHAR
STARTCHAR LBracketTop
ENCODING 233
SWIDTH 363 0
DWIDTH 4 0
BBX 3 3 1 -1
BITMAP
e0
80
80
ENDCHAR
STARTCHAR LBracketEx
ENCODING 234
SWIDTH 363 0
DWIDTH 4 0
BBX 1 5 1 -1
BITMAP
80
80
80
80
80
ENDCHAR
STARTCHAR LBracketBot
ENCODING 235
SWIDTH 363 0
DWIDTH 4 0
BBX 3 2 1 0
BITMAP
80
e0
ENDCHAR
STARTCHAR LBraceTop
ENCODING 236
SWIDTH 552 0
DWIDTH 6 0
BBX 3 8 3 -1
BITMAP
20
40
40
80
80
80
80
80
ENDCHAR
STARTCHAR LBraceMid
ENCODING 237
SWIDTH 552 0
DWIDTH 6 0
BBX 3 9 1 -2
BITMAP
20
20
20
40
80
40
20
20
20
ENDCHAR
STARTCHAR LBraceBot
ENCODING 238
SWIDTH 552 0
DWIDTH 6 0
BBX 3 8 3 0
BITMAP
80
80
80
80
80
40
40
20
ENDCHAR
STARTCHAR BraceEx
ENCODING 239
SWIDTH 552 0
DWIDTH 6 0
BBX 1 5 3 -1
BITMAP
80
80
80
80
80
ENDCHAR
STARTCHAR Slot
ENCODING 240
SWIDTH 710 0
DWIDTH 8 0
BBX 7 8 1 0
BITMAP
44
fe
44
44
44
fe
44
44
ENDCHAR
STARTCHAR RAngle
ENCODING 241
SWIDTH 363 0
DWIDTH 4 0
BBX 3 10 0 -2
BITMAP
80
40
40
40
20
20
40
40
40
80
ENDCHAR
STARTCHAR Intergral
ENCODING 242
SWIDTH 668 0
DWIDTH 7 0
BBX 6 11 1 -1
BITMAP
1c
10
20
20
20
20
20
20
20
20
c0
ENDCHAR
STARTCHAR IntegralTop
ENCODING 243
SWIDTH 976 0
DWIDTH 11 0
BBX 8 11 2 -1
BITMAP
03
03
03
03
03
03
02
06
c4
cc
70
ENDCHAR
STARTCHAR IntegralEx
ENCODING 244
SWIDTH 976 0
DWIDTH 11 0
BBX 2 8 8 0
BITMAP
c0
c0
c0
c0
c0
c0
c0
c0
ENDCHAR
STARTCHAR IntegralBot
ENCODING 245
SWIDTH 976 0
DWIDTH 11 0
BBX 9 10 8 0
BITMAP
0f00
3180
2180
6000
6000
c000
c000
c000
c000
c000
ENDCHAR
STARTCHAR RParenTop
ENCODING 246
SWIDTH 400 0
DWIDTH 4 0
BBX 4 10 -1 -1
BITMAP
80
40
20
20
20
10
10
10
10
10
ENDCHAR
STARTCHAR RParenEx
ENCODING 247
SWIDTH 400 0
DWIDTH 4 0
BBX 1 5 2 -1
BITMAP
80
80
80
80
80
ENDCHAR
STARTCHAR RParenBot
ENCODING 248
SWIDTH 400 0
DWIDTH 4 0
BBX 4 10 -1 0
BITMAP
10
10
10
10
10
20
20
20
40
80
ENDCHAR
STARTCHAR RBracketTop
ENCODING 249
SWIDTH 363 0
DWIDTH 4 0
BBX 3 3 0 -1
BITMAP
e0
20
20
ENDCHAR
STARTCHAR RBracketEx
ENCODING 250
SWIDTH 363 0
DWIDTH 4 0
BBX 1 5 2 -1
BITMAP
80
80
80
80
80
ENDCHAR
STARTCHAR RBracketBot
ENCODING 251
SWIDTH 363 0
DWIDTH 4 0
BBX 3 2 0 0
BITMAP
20
e0
ENDCHAR
STARTCHAR RBraceTop
ENCODING 252
SWIDTH 552 0
DWIDTH 6 0
BBX 3 8 0 -1
BITMAP
80
40
40
20
20
20
20
20
ENDCHAR
STARTCHAR RBraceMid
ENCODING 253
SWIDTH 552 0
DWIDTH 6 0
BBX 3 9 2 -2
BITMAP
80
80
80
40
20
40
80
80
80
ENDCHAR
STARTCHAR RBraceBot
ENCODING 254
SWIDTH 552 0
DWIDTH 6 0
BBX 3 8 0 0
BITMAP
20
20
20
20
20
40
40
80
ENDCHAR
STARTCHAR Wolf
ENCODING 255
SWIDTH 924 0
DWIDTH 10 0
BBX 9 10 0 -2
BITMAP
0800
0a00
0c00
1400
1400
2600
2100
5f80
4800
8800
ENDCHAR
ENDFONT
